Coordinates
version=1
nRows=4
nColumns=63
inDegrees=yes

Units are S.I. units (second, meters, Newtons, ...)
If the header above contains a line with 'inDegrees', this indicates whether rotational values are in degrees (yes) or radians (no).

endheader
time	pelvis_tilt	pelvis_list	pelvis_rotation	pelvis_tx	pelvis_ty	pelvis_tz	hip_flexion_r	hip_adduction_r	hip_rotation_r	knee_angle_r	knee_angle_r_beta	ankle_angle_r	subtalar_angle_r	mtp_angle_r	hip_flexion_l	hip_adduction_l	hip_rotation_l	knee_angle_l	knee_angle_l_beta	ankle_angle_l	subtalar_angle_l	mtp_angle_l	L5_S1_Flex_Ext	L5_S1_Lat_Bending	L5_S1_axial_rotation	L4_L5_Flex_Ext	L4_L5_Lat_Bending	L4_L5_axial_rotation	L3_L4_Flex_Ext	L3_L4_Lat_Bending	L3_L4_axial_rotation	L2_L3_Flex_Ext	L2_L3_Lat_Bending	L2_L3_axial_rotation	L1_L2_Flex_Ext	L1_L2_Lat_Bending	L1_L2_axial_rotation	L1_T12_Flex_Ext	L1_T12_Lat_Bending	L1_T12_axial_rotation	Abs_r3	Abs_r2	Abs_r1	Abs_t1	Abs_t2	neck_flexion	neck_bending	neck_rotation	arm_flex_r	arm_add_r	arm_rot_r	elbow_flex_r	pro_sup_r	wrist_flex_r	wrist_dev_r	arm_flex_l	arm_add_l	arm_rot_l	elbow_flex_l	pro_sup_l	wrist_flex_l	wrist_dev_l
      4.60000000	      4.13138822	     -1.06539483	    179.39368586	      2.53657657	      0.88942498	      0.20915041	      5.37141794	      0.58793193	      2.29456553	     10.80333296	      0.18855373	     16.79236870	    -18.21032254	      0.00000000	      5.22817101	      1.58937994	      0.91917152	     10.72668264	      0.18721593	     17.11555317	    -17.09537620	      0.00000000	      0.00127519	     -0.21589068	     -0.15275352	      0.00236815	     -0.28713461	     -0.16230061	      0.00209500	     -0.52491661	     -0.16230061	      0.00145741	     -0.52491661	     -0.13365933	      0.00118414	     -0.44024428	     -0.12411223	      0.00072864	     -0.33441467	     -0.11456514	      0.00910852	     -2.44219861	     -0.84956925	      0.00000000	      0.00000000	     -0.00000000	      0.00000000	      0.00000000	      5.43279244	    -10.01339847	     40.44095172	     25.95776188	     45.30650832	      0.00000000	      5.00000068	      2.54740252	    -12.61411813	     33.04800103	     26.72419488	     52.55241668	      0.00000000	      5.00000068
      4.63333333	      4.10650346	     -0.92233078	    179.48969246	      2.53649880	      0.88950090	      0.20931569	      5.32395638	      0.70657571	      2.44311720	     10.73845690	      0.18742143	     16.86634596	    -18.19798321	      0.00000000	      5.18769982	      1.46456998	      0.92691764	     10.71337115	      0.18698360	     17.05482660	    -17.12998184	      0.00000000	      0.00124818	     -0.20085521	     -0.17186132	      0.00231800	     -0.26713743	     -0.18260265	      0.00205064	     -0.48835936	     -0.18260265	      0.00142655	     -0.48835936	     -0.15037865	      0.00115906	     -0.40958394	     -0.13963732	      0.00071321	     -0.31112472	     -0.12889599	      0.00891563	     -2.27211430	     -0.95584108	      0.00000000	      0.00000000	     -0.00000000	      0.00000000	      0.00000000	      5.44497556	    -10.12676738	     40.56575283	     25.96998070	     45.32322090	      0.00000000	      5.00000064	      2.53768889	    -12.59721574	     33.26824679	     26.73844656	     52.48107916	      0.00000000	      5.00000064
      4.66666667	      4.09430678	     -0.79191034	    179.64255863	      2.53649906	      0.88964826	      0.20957430	      5.22371107	      0.80563538	      2.52311864	     10.55834270	      0.18427784	     16.91885609	    -18.17335860	      0.00000000	      5.18617040	      1.35286809	      1.01657549	     10.74158083	      0.18747595	     17.02499364	    -17.11121332	      0.00000000	      0.00252750	     -0.18582376	     -0.20882178	      0.00469381	     -0.24714561	     -0.22187314	      0.00415243	     -0.45181190	     -0.22187314	      0.00288868	     -0.45181190	     -0.18271906	      0.00234703	     -0.37893182	     -0.16966770	      0.00144421	     -0.28784101	     -0.15661634	      0.01805366	     -2.10207559	     -1.16140410	      0.00000000	      0.00000000	     -0.00000000	      0.00000000	      0.00000000	      5.51742682	    -10.21842074	     40.64903260	     25.92201692	     45.33802608	      0.00000000	      5.00000059	      2.50798278	    -12.53466282	     33.33116112	     26.67286275	     52.35848376	      0.00000000	      5.00000059
      4.70000000	      4.07565087	     -0.71163980	    179.79235954	      2.53668340	      0.88977957	      0.20969077	      5.23443039	      0.86014340	      2.72601803	     10.65810411	      0.18601901	     17.04405422	    -18.21678055	      0.00000000	      5.23502270	      1.27880357	      1.36140890	     10.89377446	      0.19013223	     16.99980479	    -17.35917988	      0.00000000	      0.00067358	     -0.17796943	     -0.24035398	      0.00125091	     -0.23669934	     -0.25537610	      0.00110663	     -0.43271487	     -0.25537610	      0.00076984	     -0.43271487	     -0.21030973	      0.00062549	     -0.36291526	     -0.19528761	      0.00038488	     -0.27567465	     -0.18026548	      0.00481133	     -2.01322579	     -1.33677673	      0.00000000	      0.00000000	     -0.00000000	      0.00000000	      0.00000000	      5.62615867	    -10.32424891	     40.95032870	     25.85830527	     45.46013024	      0.00000000	      5.00000061	      2.50679407	    -12.49398468	     33.07845422	     26.64473272	     53.55793536	      0.00000000	      5.00000061
